<?xml version="1.0" encoding="utf-8"?>
<!-- Generator: Adobe Illustrator 19.1.0, SVG Export Plug-In . SVG Version: 6.00 Build 0)  -->
<svg version="1.1" id="Layer_1" xmlns="http://www.w3.org/2000/svg" xmlns:xlink="http://www.w3.org/1999/xlink" x="0px" y="0px"
	 width="630px" height="630px" viewBox="255 -119.5 630 630" style="enable-background:new 255 -119.5 630 630;"
	 xml:space="preserve">
<style type="text/css">
	.st0{fill:#FFFFFF;}
	.st1{fill:#002D62;}
	.st2{fill:#003366;}
</style>
<g>
	<path class="st0" d="M849.6,143.7c-10.3-12.9-24.5-25-42.3-35.9c5.7-10.4,7.7-20.5,5.5-28.1l-4.1-13.8l-11.3,9
		c-0.2,0.1-0.3,0.3-0.5,0.4c3.5-15.6,1.4-31.1-2.2-36.8l-7.5-11.8l-8.4,11.2c-0.1,0.2-14.7,16.8-59.1,33.7
		c-45.4-12.3-97.3-18.8-150.2-18.8c-51.9,0-102.9,6.3-148,18.2c-43.2-16.6-57.7-33.1-57.8-33.2l-8.4-11l-7.5,11.6
		c-3.7,5.7-5.8,21.1-2.2,36.8c-0.2-0.1-0.3-0.2-0.5-0.4l-11.4-9.2l-4,14c-2,7.2-0.3,16.6,4.7,26.3c-41.6,24.8-64.4,56.1-64.4,88.9
		c0,37.5,29.4,72.6,82.7,98.9c49.9,24.6,116.9,39.7,189.1,42.8c7.2,7.7,15.1,15.2,23.5,22.4l6.2,5.3l6.2-5.3
		c6.6-5.6,15.3-13.1,24.3-22.6c71.1-3.6,137-19,185.8-43.4c52.3-26.2,81.1-61,81.1-98.1C869.2,177.2,862.6,159.9,849.6,143.7z"/>
	<polygon class="st0" points="820,103.6 816.2,103.6 814.9,106.9 813.7,103.6 809.8,103.6 809.7,103.9 809.7,103.6 801.3,103.6 
		801.3,107.6 803.4,107.6 803.4,114.9 807.7,114.9 807.7,107.6 809.1,107.6 807.9,114.9 812.3,114.9 812.7,112.3 813.7,114.9 
		816,114.9 817.1,112.3 817.4,114.9 821.8,114.9 	"/>
	<g>
		<g id="FAU_BLUE">
			<polygon class="st1" points="802.3,104.6 808.8,104.6 808.8,106.6 806.7,106.6 806.7,113.9 804.3,113.9 804.3,106.6 802.3,106.6 
							"/>
			<polygon class="st1" points="811.5,113.9 809.1,113.9 810.6,104.6 813,104.6 814.9,109.5 816.9,104.6 819.2,104.6 820.7,113.9 
				818.3,113.9 817.6,108.6 815.3,113.9 814.4,113.9 812.3,108.6 			"/>
			<path class="st2" d="M793.8,111.1c9.8-13.3,11.2-23.7,9.8-28.6c-14,11.2-27.3,13.1-27.3,13.1c16.4-16.9,13.6-46.6,10.4-51.8
				c-2.5,3.4-20.4,20.8-64.5,37.4l-1.9,0.7c-43.8-12.2-95.4-19.3-150.6-19.3c-54.3,0-105.1,6.9-148.5,18.7l-0.4-0.2
				c-44.2-16.5-62-34.1-64.5-37.4c-3.3,5.1-6,34.8,10.4,51.8c0,0-13.3-1.7-27.3-13.1c-1.4,4.7-0.1,14.6,8.8,27.2
				c-42.6,23-68.1,52.8-68.1,85.4c0,69.7,117.4,126.8,266.6,132.2c9.7,10.7,19.1,19.2,25.4,24.5c6.2-5.2,16.1-13.7,26.2-24.7
				c146.8-6.5,261.6-63.1,261.6-132C859.5,163.2,834.8,134,793.8,111.1z M692.9,112.1c51.5-15.4,83.8-45.1,83.8-45.1
				s0.5,43.7-86.2,73.3c-59,20-97.1,47.5-110.9,65.3C578.3,156.5,667.3,119.8,692.9,112.1z M683.8,195.9c0,8.1-8.6,14.7-19.3,14.7
				c-7.5,0-14-3.3-17.2-8c10.8-5.6,21.6-11.1,31.5-16.4C682,188.8,683.8,192.2,683.8,195.9z M365.9,67.1c0,0,32.3,29.7,83.8,45.1
				c25.6,7.6,114.7,44.3,113.3,93.4c-13.8-17.8-51.9-45.3-110.9-65.3C365.5,110.7,365.9,67.1,365.9,67.1z M471.1,230.1
				c18.1,0,34.1-7.1,43.4-17.7c5.2,2.6,10.4,5.1,15.3,7.6c-13.6,12.5-34.2,20.4-57.1,20.4c-41,0-74.3-25.4-74.3-56.7
				c0-9.9,3.3-19.2,9.2-27.3c1.2,0.6,2.4,1.3,3.6,1.8c0,0,6.6,3.6,17.3,9.3c-6,6.5-9.5,14.3-9.5,22.8
				C419.2,212.4,442.4,230.1,471.1,230.1z M458.8,195.9c0-3.8,1.8-7.2,4.8-9.8c10,5.2,20.7,10.8,31.5,16.4c-3.2,4.7-9.7,8-17.2,8
				C467.4,210.7,458.8,204.1,458.8,195.9z M331.9,195c0-23.1,13.9-44.6,37.8-62.6c2,1.6,4.1,3.2,6.4,4.8
				c-9.7,12.7-15.2,27.5-15.2,43.2c0,6.2,0.9,12.2,2.4,18l-17.1-7.7c-6.1,50.5,84.1,92.6,153.3,77.8l-10.2,19.5l25.7-8.8
				c4.2,10.7,10.1,20.9,16.6,30.1C418.4,300.4,331.9,252.6,331.9,195z M572,331.3c-15.8-17.5-31.1-40.6-31.1-62.6
				c0-18.1,9.1-32.2,19-42.2c-5.9,9.4-10,20.5-10,33.1c0,17.4,9.1,37.6,22.3,57l1.5-102.5c0,0,30.9,25.7,30.9,54.6
				C604.6,290.7,588.4,313.7,572,331.3z M628.1,212.4c9.3,10.7,25.3,17.7,43.4,17.7c28.7,0,52.1-17.8,52.1-39.7
				c0-8.5-3.5-16.4-9.5-22.8c10.7-5.7,17.3-9.3,17.3-9.3c1.3-0.6,2.4-1.3,3.6-1.8c5.8,8.1,9.2,17.4,9.2,27.3
				c0,31.3-33.3,56.7-74.3,56.7c-22.9,0-43.4-7.9-57.1-20.4C617.7,217.5,622.9,215,628.1,212.4z M613.2,308.7
				c6.5-8.8,12.3-18.4,16.5-28.6l22.6,7.8l-10-19.4c69.2,14.7,159.3-27.4,153.2-77.9l-17.1,7.7c1.6-5.8,2.4-11.8,2.4-18
				c0-15.6-5.4-30.1-14.8-42.7c1.8-1.4,3.6-2.6,5.2-4c22.8,17.8,36.1,38.8,36.1,61.3C807.2,251.6,723.6,298.7,613.2,308.7z"/>
		</g>
		<g id="FAU_RED">
		</g>
		<g id="WHITE">
		</g>
	</g>
	<path class="st0" d="M692.9,112.1c51.5-15.4,83.8-45.1,83.8-45.1s0.5,43.7-86.2,73.3c-59,20-97.1,47.5-110.9,65.3
		C578.3,156.5,667.3,119.8,692.9,112.1z"/>
	<path class="st0" d="M683.8,195.9c0,8.1-8.6,14.7-19.3,14.7c-7.5,0-14-3.3-17.2-8c10.8-5.6,21.6-11.1,31.5-16.4
		C682,188.8,683.8,192.2,683.8,195.9z"/>
	<path class="st0" d="M365.9,67.1c0,0,32.3,29.7,83.8,45.1c25.6,7.6,114.7,44.3,113.3,93.4c-13.8-17.8-51.9-45.3-110.9-65.3
		C365.5,110.7,365.9,67.1,365.9,67.1z"/>
	<path class="st0" d="M471.1,230.1c18.1,0,34.1-7.1,43.4-17.7c5.2,2.6,10.4,5.1,15.3,7.6c-13.6,12.5-34.2,20.4-57.1,20.4
		c-41,0-74.3-25.4-74.3-56.7c0-9.9,3.3-19.2,9.2-27.3c1.2,0.6,2.4,1.3,3.6,1.8c0,0,6.6,3.6,17.3,9.3c-6,6.5-9.5,14.3-9.5,22.8
		C419.2,212.4,442.4,230.1,471.1,230.1z"/>
	<path class="st0" d="M458.8,195.9c0-3.8,1.8-7.2,4.8-9.8c10,5.2,20.7,10.8,31.5,16.4c-3.2,4.7-9.7,8-17.2,8
		C467.4,210.7,458.8,204.1,458.8,195.9z"/>
	<path class="st0" d="M331.9,195c0-23.1,13.9-44.6,37.8-62.6c2,1.6,4.1,3.2,6.4,4.8c-9.7,12.7-15.2,27.5-15.2,43.2
		c0,6.2,0.9,12.2,2.4,18l-17.1-7.7c-6.1,50.5,84.1,92.6,153.3,77.8l-10.2,19.5l25.7-8.8c4.2,10.7,10.1,20.9,16.6,30.1
		C418.4,300.4,331.9,252.6,331.9,195z"/>
	<path class="st0" d="M572,331.3c-15.8-17.5-31.1-40.6-31.1-62.6c0-18.1,9.1-32.2,19-42.2c-5.9,9.4-10,20.5-10,33.1
		c0,17.4,9.1,37.6,22.3,57l1.5-102.5c0,0,30.9,25.7,30.9,54.6C604.6,290.7,588.4,313.7,572,331.3z"/>
	<path class="st0" d="M628.1,212.4c9.3,10.7,25.3,17.7,43.4,17.7c28.7,0,52.1-17.8,52.1-39.7c0-8.5-3.5-16.4-9.5-22.8
		c10.7-5.7,17.3-9.3,17.3-9.3c1.3-0.6,2.4-1.3,3.6-1.8c5.8,8.1,9.2,17.4,9.2,27.3c0,31.3-33.3,56.7-74.3,56.7
		c-22.9,0-43.4-7.9-57.1-20.4C617.7,217.5,622.9,215,628.1,212.4z"/>
	<path class="st0" d="M613.2,308.7c6.5-8.8,12.3-18.4,16.5-28.6l22.6,7.8l-10-19.4c69.2,14.7,159.3-27.4,153.2-77.9l-17.1,7.7
		c1.6-5.8,2.4-11.8,2.4-18c0-15.6-5.4-30.1-14.8-42.7c1.8-1.4,3.6-2.6,5.2-4c22.8,17.8,36.1,38.8,36.1,61.3
		C807.2,251.6,723.6,298.7,613.2,308.7z"/>
</g>
</svg>
